PathFileType	4	(x/y/z)	S09_M20_T05
DataRate	CameraRate	NumFrames	NumMarkers	Units	OrigDataRate	OrigDataStartFrame	OrigNumFrames
240	240	5	51	mm	240	363	580
Frame#	Time	Sternum			R.Acromium			L.Acromium			Top.Head			R.ASIS			L.ASIS			R.PSIS			L.PSIS			R.Great.Tro			L.Great.Tro			R.Iliac.Crest			L.Iliac.Crest			V.Sacral			R.Thigh.Upper.Post			R.Thigh.Lower.Ant			R.Thigh.Lower.Post			R.Thigh.Upper.Ant			R.Knee.Lat			R.Knee.Med			R.Shank.Upper.Post			R.Shank.Lower.Ant			R.Shank.Lower.Post			R.Shank.Upper.Ant			R.Ankle.Lat			R.Ankle.Med			R.Heel.Upper			R.Heel.Med			R.Heel.Lat			R.Toe.Lat			R.Toe.Med			R.Toe.Tip			L.Thigh.Upper.Post			L.Thigh.Lower.Ant			L.Thigh.Lower.Post			L.Thigh.Upper.Ant			L.Knee.Lat			L.Knee.Med			L.Shank.Upper.Post			L.Shank.Lower.Ant			L.Shank.Lower.Post			L.Shank.Upper.Ant			L.Ankle.Lat			L.Ankle.Med			L.Heel.Upper			L.Heel.Med			L.Heel.Lat			L.Toe.Lat			L.Toe.Med			L.Toe.Tip			Cervical.Spine			Back			
		X1	Y1	Z1	X2	Y2	Z2	X3	Y3	Z3	X4	Y4	Z4	X5	Y5	Z5	X6	Y6	Z6	X7	Y7	Z7	X8	Y8	Z8	X9	Y9	Z9	X10	Y10	Z10	X11	Y11	Z11	X12	Y12	Z12	X13	Y13	Z13	X14	Y14	Z14	X15	Y15	Z15	X16	Y16	Z16	X17	Y17	Z17	X18	Y18	Z18	X19	Y19	Z19	X20	Y20	Z20	X21	Y21	Z21	X22	Y22	Z22	X23	Y23	Z23	X24	Y24	Z24	X25	Y25	Z25	X26	Y26	Z26	X27	Y27	Z27	X28	Y28	Z28	X29	Y29	Z29	X30	Y30	Z30	X31	Y31	Z31	X32	Y32	Z32	X33	Y33	Z33	X34	Y34	Z34	X35	Y35	Z35	X36	Y36	Z36	X37	Y37	Z37	X38	Y38	Z38	X39	Y39	Z39	X40	Y40	Z40	X41	Y41	Z41	X42	Y42	Z42	X43	Y43	Z43	X44	Y44	Z44	X45	Y45	Z45	X46	Y46	Z46	X47	Y47	Z47	X48	Y48	Z48	X49	Y49	Z49	X50	Y50	Z50	X51	Y51	Z51	

363	1.5083	1197	1111.1	324.6	1033.8	1349.3	440.76	1049.3	1344.1	140.34	1021.9	1648.6	273.74	1129.5	932.55	439.12	1187.7	947.03	197.61	936.58	971.47	307.64	963.75	968.31	221.92	1012.3	860.32	488.33	1151.5	870.16	111.78	1032.9	1016.3	463.14	1083.8	1036.8	136.26	930.64	935.57	255.09	899.96	649.9	447.47	918.89	522.82	430.87	856.52	570.44	416.79	953.74	603.03	459.63	858.62	469.56	413.84	875.43	448.68	296.68	686.98	391.88	405.43	692.09	300.76	401.55	632.38	339.41	391.11	740.28	355.5	414.93	516.54	182.51	374.47	556.99	167.44	292.47	461.25	208.49	314.12	452.62	179.18	281.96	437.54	182.37	345.24	530.98	61.489	409.91	586.4	40.079	313.51	620.19	42.066	361.26	1209.1	611.08	155.03	1326.7	570.23	175.29	1267.6	544.01	183.21	1275.4	636.89	143.65	1351.1	498.84	187.57	1341.8	516.09	320.96	1346.6	363.21	172.61	1427.7	291.36	195.64	1364.9	288.31	180.05	1408.5	366.59	189.26	1426.4	102.88	204.47	1439.3	98.935	298.94	1369.3	61	255.89	1386	40.755	288.65	1372.6	31.346	229.73	1534.5	69.819	175.51	1572.1	86.605	281.23	1611.1	122.27	220.62	956.89	1392.5	295.93	934.91	1119	281.9
364	1.5125	1204.3	1111.1	323.64	1040.5	1349.4	440.01	1055.8	1344.1	139.68	1027.8	1648.6	272.99	1137.3	931.88	437.96	1194.3	947.61	196.35	943.62	970.97	308.04	970.24	968.38	222.11	1020.2	859.3	488.05	1158.1	871.21	110.68	1041.1	1015.6	462.86	1089.9	1037.3	135.89	937.41	935.38	255.33	907.82	649.1	447.11	927.02	521.98	431.31	864.62	569.41	416.75	961.63	602.41	459.72	866.67	468.66	414.49	883.97	447.15	297.62	694.31	392.71	405.42	698.42	301.54	402.17	639.24	340.74	391.04	747.11	355.81	415.53	521.68	184.85	374.57	562.57	168.88	293.02	468.18	212.39	313.69	459	183.57	281.26	443.34	186.95	344.38	532.02	63.051	409.38	587.67	40.28	313.6	620.36	41.86	361.46	1216.6	611.87	154.15	1334.1	571.25	174.7	1274.8	544.69	182.89	1282.9	637.86	142.87	1358.8	499.86	187.42	1349.6	517.7	320.75	1352.8	364.22	171.99	1432.7	291.27	195.7	1370	289.08	179.55	1414.6	366.77	189.24	1428.3	102.75	204.33	1440.9	98.631	298.84	1370.2	61.751	255.65	1386.5	41.248	288.49	1373.1	31.979	229.54	1536	67.922	175.74	1573.7	84.017	281.5	1613.5	119.02	220.98	963.37	1392.3	295.3	941.82	1118.7	281.74
365	1.5167	1211.5	1111.3	322.64	1047.2	1349.5	439.27	1062.3	1344.2	139.03	1033.8	1648.7	272.24	1145.1	931.3	436.76	1200.9	948.32	195.05	950.62	970.53	308.45	976.69	968.5	222.33	1028	858.36	487.76	1164.5	872.28	109.54	1049.2	1015	462.55	1096	1037.8	135.52	944.16	935.24	255.59	915.73	648.31	446.78	935.27	521.16	431.81	872.83	568.35	416.77	969.61	601.84	459.84	874.87	467.75	415.21	892.68	445.61	298.65	701.81	393.51	405.46	704.94	302.32	402.85	646.31	342.04	391.01	754.12	356.12	416.18	527.08	187.17	374.71	568.38	170.28	293.62	475.48	216.29	313.31	465.76	187.99	280.6	449.5	191.59	343.55	533.19	64.735	408.83	589.05	40.562	313.68	620.59	41.621	361.69	1224	612.65	153.25	1341.3	572.22	174.07	1281.9	545.37	182.52	1290.3	638.78	142.05	1366.3	500.82	187.23	1357.4	519.29	320.52	1358.9	365.17	171.33	1437.5	291.16	195.72	1375	289.81	179.03	1420.5	366.91	189.17	1430.2	102.63	204.18	1442.5	98.364	298.72	1371	62.45	255.41	1386.9	41.72	288.33	1373.6	32.579	229.36	1537.3	66.096	175.94	1575.1	81.551	281.73	1615.7	115.88	221.3	969.83	1392.2	294.69	948.69	1118.6	281.62
366	1.5208	1218.7	1111.5	321.6	1053.8	1349.7	438.53	1068.8	1344.3	138.4	1039.7	1648.9	271.49	1152.9	930.8	435.5	1207.4	949.13	193.7	957.59	970.16	308.86	983.12	968.65	222.55	1035.9	857.5	487.44	1170.8	873.33	108.37	1057.3	1014.4	462.23	1101.9	1038.4	135.14	950.87	935.15	255.87	923.71	647.55	446.48	943.65	520.38	432.37	881.13	567.29	416.85	977.68	601.32	460.01	883.2	466.85	416	901.56	444.05	299.76	709.51	394.3	405.54	711.66	303.1	403.59	653.58	343.32	391.02	761.31	356.43	416.91	532.74	189.48	374.88	574.42	171.64	294.27	483.16	220.18	312.99	472.91	192.43	279.99	456.03	196.29	342.75	534.49	66.551	408.26	590.57	40.938	313.76	620.89	41.345	361.94	1231.2	613.4	152.36	1348.3	573.09	173.4	1288.8	546.04	182.12	1297.5	639.64	141.19	1373.6	501.68	187	1365	520.81	320.26	1364.8	366.04	170.64	1442.2	291	195.7	1379.8	290.49	178.48	1426.3	367	189.06	1432	102.51	204.02	1443.9	98.123	298.58	1371.8	63.098	255.18	1387.3	42.169	288.17	1374.1	33.142	229.17	1538.5	64.336	176.09	1576.5	79.201	281.92	1617.8	112.85	221.56	976.27	1392.2	294.09	955.53	1118.5	281.55
367	1.525	1225.8	1111.8	320.53	1060.5	1350.1	437.8	1075.2	1344.6	137.77	1045.7	1649.1	270.74	1160.6	930.41	434.21	1213.9	950.04	192.32	964.53	969.87	309.25	989.54	968.84	222.76	1043.7	856.72	487.1	1177	874.36	107.17	1065.4	1013.9	461.88	1107.8	1039	134.75	957.56	935.11	256.15	931.73	646.8	446.22	952.13	519.63	433	889.52	566.23	416.99	985.81	600.86	460.21	891.67	465.95	416.86	910.59	442.48	300.96	717.38	395.06	405.66	718.56	303.87	404.38	661.04	344.58	391.06	768.67	356.75	417.69	538.66	191.77	375.1	580.7	172.96	294.97	491.21	224.05	312.74	480.44	196.88	279.43	462.94	201.03	341.99	535.94	68.505	407.68	592.24	41.419	313.85	621.28	41.031	362.22	1238.3	614.12	151.46	1355.2	573.85	172.69	1295.6	546.68	181.66	1304.5	640.42	140.31	1380.7	502.43	186.71	1372.5	522.23	319.95	1370.5	366.82	169.93	1446.7	290.79	195.64	1384.4	291.09	177.91	1431.9	367.02	188.91	1433.7	102.38	203.85	1445.2	97.898	298.44	1372.6	63.696	254.96	1387.7	42.591	288.02	1374.5	33.67	228.99	1539.7	62.64	176.22	1577.7	76.959	282.07	1619.7	109.94	221.78	982.67	1392.3	293.5	962.33	1118.5	281.51
